<?xml version="1.0" encoding="UTF-8" standalone="no"?>
<!DOCTYPE svg PUBLIC "-//W3C//DTD SVG 1.1//EN"
 "http://www.w3.org/Graphics/SVG/1.1/DTD/svg11.dtd">
<!-- Generated by graphviz version 2.43.0 (0)
 -->
<!-- Title: superiority Pages: 1 -->
<svg width="1994pt" height="260pt"
 viewBox="0.00 0.00 1994.34 260.00" xmlns="http://www.w3.org/2000/svg" xmlns:xlink="http://www.w3.org/1999/xlink">
<g id="graph0" class="graph" transform="scale(1 1) rotate(0) translate(4 256)">
<title>superiority</title>
<polygon fill="white" stroke="transparent" points="-4,4 -4,-256 1990.34,-256 1990.34,4 -4,4"/>
<!-- Shock Lands -->
<g id="node1" class="node">
<title>Shock Lands</title>
<ellipse fill="none" stroke="black" cx="665.74" cy="-90" rx="69.59" ry="18"/>
<text text-anchor="middle" x="665.74" y="-86.3" font-family="Times,serif" font-size="14.00">Shock Lands</text>
</g>
<!-- Command Tower -->
<g id="node2" class="node">
<title>Command Tower</title>
<ellipse fill="none" stroke="black" cx="484.74" cy="-18" rx="89.08" ry="18"/>
<text text-anchor="middle" x="484.74" y="-14.3" font-family="Times,serif" font-size="14.00">Command Tower</text>
</g>
<!-- Shock Lands&#45;&gt;Command Tower -->
<g id="edge1" class="edge">
<title>Shock Lands&#45;&gt;Command Tower</title>
<path fill="none" stroke="black" d="M628.68,-74.67C601.15,-64.02 563.34,-49.4 533.38,-37.81"/>
<polygon fill="black" stroke="black" points="534.54,-34.51 523.95,-34.16 532.02,-41.03 534.54,-34.51"/>
</g>
<!-- Original Dual Lands -->
<g id="node3" class="node">
<title>Original Dual Lands</title>
<ellipse fill="none" stroke="black" cx="694.74" cy="-18" rx="103.18" ry="18"/>
<text text-anchor="middle" x="694.74" y="-14.3" font-family="Times,serif" font-size="14.00">Original Dual Lands</text>
</g>
<!-- Shock Lands&#45;&gt;Original Dual Lands -->
<g id="edge2" class="edge">
<title>Shock Lands&#45;&gt;Original Dual Lands</title>
<path fill="none" stroke="black" d="M672.76,-72.05C676.03,-64.18 679.99,-54.62 683.64,-45.79"/>
<polygon fill="black" stroke="black" points="686.99,-46.85 687.59,-36.28 680.53,-44.17 686.99,-46.85"/>
</g>
<!-- Bond Lands -->
<g id="node4" class="node">
<title>Bond Lands</title>
<ellipse fill="none" stroke="black" cx="512.74" cy="-90" rx="65.79" ry="18"/>
<text text-anchor="middle" x="512.74" y="-86.3" font-family="Times,serif" font-size="14.00">Bond Lands</text>
</g>
<!-- Bond Lands&#45;&gt;Command Tower -->
<g id="edge3" class="edge">
<title>Bond Lands&#45;&gt;Command Tower</title>
<path fill="none" stroke="black" d="M505.97,-72.05C502.81,-64.18 498.99,-54.62 495.46,-45.79"/>
<polygon fill="black" stroke="black" points="498.62,-44.26 491.65,-36.28 492.12,-46.86 498.62,-44.26"/>
</g>
<!-- Bond Lands&#45;&gt;Original Dual Lands -->
<g id="edge4" class="edge">
<title>Bond Lands&#45;&gt;Original Dual Lands</title>
<path fill="none" stroke="black" d="M549.14,-75C576.47,-64.49 614.23,-49.97 644.45,-38.34"/>
<polygon fill="black" stroke="black" points="645.9,-41.54 653.97,-34.68 643.38,-35 645.9,-41.54"/>
</g>
<!-- Three Color Untyped Taplands -->
<g id="node5" class="node">
<title>Three Color Untyped Taplands</title>
<ellipse fill="none" stroke="black" cx="1257.74" cy="-162" rx="152.97" ry="18"/>
<text text-anchor="middle" x="1257.74" y="-158.3" font-family="Times,serif" font-size="14.00">Three Color Untyped Taplands</text>
</g>
<!-- Triomes -->
<g id="node6" class="node">
<title>Triomes</title>
<ellipse fill="none" stroke="black" cx="1426.74" cy="-90" rx="48.19" ry="18"/>
<text text-anchor="middle" x="1426.74" y="-86.3" font-family="Times,serif" font-size="14.00">Triomes</text>
</g>
<!-- Three Color Untyped Taplands&#45;&gt;Triomes -->
<g id="edge5" class="edge">
<title>Three Color Untyped Taplands&#45;&gt;Triomes</title>
<path fill="none" stroke="black" d="M1297.37,-144.59C1324.13,-133.5 1359.35,-118.91 1386.29,-107.76"/>
<polygon fill="black" stroke="black" points="1387.91,-110.88 1395.81,-103.81 1385.23,-104.41 1387.91,-110.88"/>
</g>
<!-- Battle Lands -->
<g id="node7" class="node">
<title>Battle Lands</title>
<ellipse fill="none" stroke="black" cx="1497.74" cy="-162" rx="69.59" ry="18"/>
<text text-anchor="middle" x="1497.74" y="-158.3" font-family="Times,serif" font-size="14.00">Battle Lands</text>
</g>
<!-- Battle Lands&#45;&gt;Shock Lands -->
<g id="edge6" class="edge">
<title>Battle Lands&#45;&gt;Shock Lands</title>
<path fill="none" stroke="black" d="M1448.42,-149.12C1438.95,-147.16 1429.07,-145.34 1419.74,-144 1175.16,-108.94 882.48,-96.78 744.76,-92.8"/>
<polygon fill="black" stroke="black" points="744.81,-89.3 734.71,-92.52 744.61,-96.3 744.81,-89.3"/>
</g>
<!-- Two Color Typed Taplands -->
<g id="node8" class="node">
<title>Two Color Typed Taplands</title>
<ellipse fill="none" stroke="black" cx="1546.74" cy="-234" rx="133.48" ry="18"/>
<text text-anchor="middle" x="1546.74" y="-230.3" font-family="Times,serif" font-size="14.00">Two Color Typed Taplands</text>
</g>
<!-- Two Color Typed Taplands&#45;&gt;Triomes -->
<g id="edge7" class="edge">
<title>Two Color Typed Taplands&#45;&gt;Triomes</title>
<path fill="none" stroke="black" d="M1561.06,-215.93C1575.12,-196.96 1592.37,-166.1 1576.74,-144 1555.79,-114.37 1516.82,-101.19 1483.86,-95.39"/>
<polygon fill="black" stroke="black" points="1484.27,-91.91 1473.85,-93.81 1483.18,-98.82 1484.27,-91.91"/>
</g>
<!-- Two Color Typed Taplands&#45;&gt;Battle Lands -->
<g id="edge8" class="edge">
<title>Two Color Typed Taplands&#45;&gt;Battle Lands</title>
<path fill="none" stroke="black" d="M1534.88,-216.05C1529.04,-207.71 1521.89,-197.49 1515.42,-188.25"/>
<polygon fill="black" stroke="black" points="1518.1,-185.97 1509.5,-179.79 1512.36,-189.99 1518.1,-185.97"/>
</g>
<!-- Verge Lands -->
<g id="node9" class="node">
<title>Verge Lands</title>
<ellipse fill="none" stroke="black" cx="515.74" cy="-162" rx="68.49" ry="18"/>
<text text-anchor="middle" x="515.74" y="-158.3" font-family="Times,serif" font-size="14.00">Verge Lands</text>
</g>
<!-- Verge Lands&#45;&gt;Shock Lands -->
<g id="edge10" class="edge">
<title>Verge Lands&#45;&gt;Shock Lands</title>
<path fill="none" stroke="black" d="M547.92,-145.98C570.27,-135.56 600.23,-121.57 624.35,-110.32"/>
<polygon fill="black" stroke="black" points="626.04,-113.39 633.62,-105.99 623.08,-107.05 626.04,-113.39"/>
</g>
<!-- Verge Lands&#45;&gt;Bond Lands -->
<g id="edge9" class="edge">
<title>Verge Lands&#45;&gt;Bond Lands</title>
<path fill="none" stroke="black" d="M515,-143.7C514.67,-135.98 514.28,-126.71 513.91,-118.11"/>
<polygon fill="black" stroke="black" points="517.4,-117.95 513.48,-108.1 510.41,-118.25 517.4,-117.95"/>
</g>
<!-- Pain Lands -->
<g id="node10" class="node">
<title>Pain Lands</title>
<ellipse fill="none" stroke="black" cx="367.74" cy="-162" rx="61.99" ry="18"/>
<text text-anchor="middle" x="367.74" y="-158.3" font-family="Times,serif" font-size="14.00">Pain Lands</text>
</g>
<!-- Pain Lands&#45;&gt;Shock Lands -->
<g id="edge12" class="edge">
<title>Pain Lands&#45;&gt;Shock Lands</title>
<path fill="none" stroke="black" d="M413.95,-149.9C422.2,-147.92 430.73,-145.9 438.74,-144 495.43,-130.6 560.14,-115.51 605.92,-104.87"/>
<polygon fill="black" stroke="black" points="606.74,-108.27 615.68,-102.6 605.15,-101.46 606.74,-108.27"/>
</g>
<!-- Pain Lands&#45;&gt;Bond Lands -->
<g id="edge11" class="edge">
<title>Pain Lands&#45;&gt;Bond Lands</title>
<path fill="none" stroke="black" d="M398.14,-146.33C419.84,-135.85 449.24,-121.66 472.83,-110.27"/>
<polygon fill="black" stroke="black" points="474.4,-113.4 481.89,-105.9 471.36,-107.09 474.4,-113.4"/>
</g>
<!-- Slow Lands -->
<g id="node11" class="node">
<title>Slow Lands</title>
<ellipse fill="none" stroke="black" cx="665.74" cy="-162" rx="63.89" ry="18"/>
<text text-anchor="middle" x="665.74" y="-158.3" font-family="Times,serif" font-size="14.00">Slow Lands</text>
</g>
<!-- Slow Lands&#45;&gt;Shock Lands -->
<g id="edge14" class="edge">
<title>Slow Lands&#45;&gt;Shock Lands</title>
<path fill="none" stroke="black" d="M665.74,-143.7C665.74,-135.98 665.74,-126.71 665.74,-118.11"/>
<polygon fill="black" stroke="black" points="669.24,-118.1 665.74,-108.1 662.24,-118.1 669.24,-118.1"/>
</g>
<!-- Slow Lands&#45;&gt;Bond Lands -->
<g id="edge13" class="edge">
<title>Slow Lands&#45;&gt;Bond Lands</title>
<path fill="none" stroke="black" d="M633.67,-146.33C610.59,-135.77 579.26,-121.43 554.28,-110"/>
<polygon fill="black" stroke="black" points="555.59,-106.75 545.04,-105.78 552.68,-113.12 555.59,-106.75"/>
</g>
<!-- Check Lands -->
<g id="node12" class="node">
<title>Check Lands</title>
<ellipse fill="none" stroke="black" cx="816.74" cy="-162" rx="69.59" ry="18"/>
<text text-anchor="middle" x="816.74" y="-158.3" font-family="Times,serif" font-size="14.00">Check Lands</text>
</g>
<!-- Check Lands&#45;&gt;Shock Lands -->
<g id="edge16" class="edge">
<title>Check Lands&#45;&gt;Shock Lands</title>
<path fill="none" stroke="black" d="M784.35,-145.98C761.86,-135.56 731.69,-121.57 707.41,-110.32"/>
<polygon fill="black" stroke="black" points="708.63,-107.02 698.08,-105.99 705.68,-113.37 708.63,-107.02"/>
</g>
<!-- Check Lands&#45;&gt;Bond Lands -->
<g id="edge15" class="edge">
<title>Check Lands&#45;&gt;Bond Lands</title>
<path fill="none" stroke="black" d="M766.55,-149.44C712.93,-137.1 628.05,-117.55 571.39,-104.5"/>
<polygon fill="black" stroke="black" points="572.04,-101.06 561.51,-102.23 570.47,-107.88 572.04,-101.06"/>
</g>
<!-- Fast Lands -->
<g id="node13" class="node">
<title>Fast Lands</title>
<ellipse fill="none" stroke="black" cx="61.74" cy="-162" rx="61.99" ry="18"/>
<text text-anchor="middle" x="61.74" y="-158.3" font-family="Times,serif" font-size="14.00">Fast Lands</text>
</g>
<!-- Fast Lands&#45;&gt;Shock Lands -->
<g id="edge18" class="edge">
<title>Fast Lands&#45;&gt;Shock Lands</title>
<path fill="none" stroke="black" d="M105.84,-149.31C114.7,-147.29 123.98,-145.39 132.74,-144 333.1,-112.29 387.07,-137.67 587.74,-108 593.86,-107.1 600.22,-105.99 606.54,-104.78"/>
<polygon fill="black" stroke="black" points="607.29,-108.2 616.42,-102.81 605.92,-101.33 607.29,-108.2"/>
</g>
<!-- Fast Lands&#45;&gt;Bond Lands -->
<g id="edge17" class="edge">
<title>Fast Lands&#45;&gt;Bond Lands</title>
<path fill="none" stroke="black" d="M106.68,-149.55C115.3,-147.55 124.28,-145.6 132.74,-144 240.33,-123.67 366.42,-107.59 442.89,-98.69"/>
<polygon fill="black" stroke="black" points="443.36,-102.16 452.89,-97.54 442.55,-95.21 443.36,-102.16"/>
</g>
<!-- Reveal Lands -->
<g id="node14" class="node">
<title>Reveal Lands</title>
<ellipse fill="none" stroke="black" cx="214.74" cy="-162" rx="72.59" ry="18"/>
<text text-anchor="middle" x="214.74" y="-158.3" font-family="Times,serif" font-size="14.00">Reveal Lands</text>
</g>
<!-- Reveal Lands&#45;&gt;Shock Lands -->
<g id="edge20" class="edge">
<title>Reveal Lands&#45;&gt;Shock Lands</title>
<path fill="none" stroke="black" d="M267.12,-149.48C276.94,-147.51 287.13,-145.59 296.74,-144 425.32,-122.75 459.28,-129.9 587.74,-108 593.61,-107 599.7,-105.86 605.78,-104.65"/>
<polygon fill="black" stroke="black" points="606.85,-108 615.94,-102.56 605.45,-101.14 606.85,-108"/>
</g>
<!-- Reveal Lands&#45;&gt;Bond Lands -->
<g id="edge19" class="edge">
<title>Reveal Lands&#45;&gt;Bond Lands</title>
<path fill="none" stroke="black" d="M265.63,-149.05C318.06,-136.73 399.66,-117.56 454.6,-104.66"/>
<polygon fill="black" stroke="black" points="455.6,-108.02 464.53,-102.32 454,-101.2 455.6,-108.02"/>
</g>
<!-- Two Faced Lands -->
<g id="node15" class="node">
<title>Two Faced Lands</title>
<ellipse fill="none" stroke="black" cx="995.74" cy="-162" rx="90.98" ry="18"/>
<text text-anchor="middle" x="995.74" y="-158.3" font-family="Times,serif" font-size="14.00">Two Faced Lands</text>
</g>
<!-- Two Faced Lands&#45;&gt;Shock Lands -->
<g id="edge22" class="edge">
<title>Two Faced Lands&#45;&gt;Shock Lands</title>
<path fill="none" stroke="black" d="M935.98,-148.32C877.08,-135.83 787.46,-116.82 727.78,-104.16"/>
<polygon fill="black" stroke="black" points="728.24,-100.68 717.73,-102.03 726.79,-107.53 728.24,-100.68"/>
</g>
<!-- Two Faced Lands&#45;&gt;Bond Lands -->
<g id="edge21" class="edge">
<title>Two Faced Lands&#45;&gt;Bond Lands</title>
<path fill="none" stroke="black" d="M930.47,-149.4C918.91,-147.49 906.99,-145.61 895.74,-144 758.88,-124.41 722.99,-131.51 586.74,-108 581.31,-107.06 575.67,-105.97 570.04,-104.81"/>
<polygon fill="black" stroke="black" points="570.47,-101.33 559.96,-102.66 569.01,-108.17 570.47,-101.33"/>
</g>
<!-- Two Color Untyped Taplands -->
<g id="node16" class="node">
<title>Two Color Untyped Taplands</title>
<ellipse fill="none" stroke="black" cx="665.74" cy="-234" rx="144.87" ry="18"/>
<text text-anchor="middle" x="665.74" y="-230.3" font-family="Times,serif" font-size="14.00">Two Color Untyped Taplands</text>
</g>
<!-- Two Color Untyped Taplands&#45;&gt;Three Color Untyped Taplands -->
<g id="edge23" class="edge">
<title>Two Color Untyped Taplands&#45;&gt;Three Color Untyped Taplands</title>
<path fill="none" stroke="black" d="M766.84,-221.05C871.56,-208.66 1034.87,-189.35 1144.02,-176.45"/>
<polygon fill="black" stroke="black" points="1144.56,-179.91 1154.08,-175.26 1143.74,-172.96 1144.56,-179.91"/>
</g>
<!-- Two Color Untyped Taplands&#45;&gt;Slow Lands -->
<g id="edge24" class="edge">
<title>Two Color Untyped Taplands&#45;&gt;Slow Lands</title>
<path fill="none" stroke="black" d="M665.74,-215.7C665.74,-207.98 665.74,-198.71 665.74,-190.11"/>
<polygon fill="black" stroke="black" points="669.24,-190.1 665.74,-180.1 662.24,-190.1 669.24,-190.1"/>
</g>
<!-- Two Color Untyped Taplands&#45;&gt;Check Lands -->
<g id="edge25" class="edge">
<title>Two Color Untyped Taplands&#45;&gt;Check Lands</title>
<path fill="none" stroke="black" d="M701.53,-216.41C723.61,-206.18 752.01,-193.01 775.1,-182.31"/>
<polygon fill="black" stroke="black" points="776.7,-185.42 784.3,-178.04 773.76,-179.07 776.7,-185.42"/>
</g>
<!-- Two Color Untyped Taplands&#45;&gt;Fast Lands -->
<g id="edge26" class="edge">
<title>Two Color Untyped Taplands&#45;&gt;Fast Lands</title>
<path fill="none" stroke="black" d="M538.83,-225.25C430.44,-217.48 270.63,-203.25 132.74,-180 127.35,-179.09 121.77,-178.01 116.2,-176.83"/>
<polygon fill="black" stroke="black" points="116.77,-173.37 106.25,-174.63 115.26,-180.21 116.77,-173.37"/>
</g>
<!-- Two Color Untyped Taplands&#45;&gt;Reveal Lands -->
<g id="edge27" class="edge">
<title>Two Color Untyped Taplands&#45;&gt;Reveal Lands</title>
<path fill="none" stroke="black" d="M567.98,-220.63C493.46,-210.8 388.38,-196.06 296.74,-180 290.54,-178.91 284.09,-177.71 277.65,-176.45"/>
<polygon fill="black" stroke="black" points="278.08,-172.97 267.59,-174.45 276.71,-179.83 278.08,-172.97"/>
</g>
<!-- Filter Lands -->
<g id="node17" class="node">
<title>Filter Lands</title>
<ellipse fill="none" stroke="black" cx="1765.74" cy="-234" rx="67.69" ry="18"/>
<text text-anchor="middle" x="1765.74" y="-230.3" font-family="Times,serif" font-size="14.00">Filter Lands</text>
</g>
<!-- Fetch Lands -->
<g id="node18" class="node">
<title>Fetch Lands</title>
<ellipse fill="none" stroke="black" cx="1918.74" cy="-234" rx="67.69" ry="18"/>
<text text-anchor="middle" x="1918.74" y="-230.3" font-family="Times,serif" font-size="14.00">Fetch Lands</text>
</g>
</g>
</svg>
