<?xml version="1.0" encoding="UTF-8" standalone="no"?>
<!DOCTYPE svg PUBLIC "-//W3C//DTD SVG 1.1//EN"
 "http://www.w3.org/Graphics/SVG/1.1/DTD/svg11.dtd">
<!-- Generated by graphviz version 2.43.0 (0)
 -->
<!-- Title: superiority Pages: 1 -->
<svg width="1656pt" height="800pt"
 viewBox="0.00 0.00 1655.98 800.00" xmlns="http://www.w3.org/2000/svg" xmlns:xlink="http://www.w3.org/1999/xlink">
<g id="graph0" class="graph" transform="scale(1 1) rotate(0) translate(4 796)">
<title>superiority</title>
<polygon fill="white" stroke="transparent" points="-4,4 -4,-796 1651.98,-796 1651.98,4 -4,4"/>
<!-- Shock Lands -->
<g id="node1" class="node">
<title>Shock Lands</title>
<ellipse fill="none" stroke="black" cx="649.74" cy="-270" rx="69.59" ry="18"/>
<text text-anchor="middle" x="649.74" y="-266.3" font-family="Times,serif" font-size="14.00">Shock Lands</text>
</g>
<!-- Command Tower -->
<g id="node2" class="node">
<title>Command Tower</title>
<ellipse fill="none" stroke="black" cx="472.74" cy="-18" rx="89.08" ry="18"/>
<text text-anchor="middle" x="472.74" y="-14.3" font-family="Times,serif" font-size="14.00">Command Tower</text>
</g>
<!-- Shock Lands&#45;&gt;Command Tower -->
<g id="edge1" class="edge">
<title>Shock Lands&#45;&gt;Command Tower</title>
<path fill="none" stroke="black" d="M637.86,-252.21C607.45,-209.26 526.7,-95.21 490.61,-44.24"/>
<polygon fill="black" stroke="black" points="493.45,-42.19 484.81,-36.05 487.74,-46.23 493.45,-42.19"/>
</g>
<!-- Original Dual Lands -->
<g id="node3" class="node">
<title>Original Dual Lands</title>
<ellipse fill="none" stroke="black" cx="678.74" cy="-18" rx="103.18" ry="18"/>
<text text-anchor="middle" x="678.74" y="-14.3" font-family="Times,serif" font-size="14.00">Original Dual Lands</text>
</g>
<!-- Shock Lands&#45;&gt;Original Dual Lands -->
<g id="edge2" class="edge">
<title>Shock Lands&#45;&gt;Original Dual Lands</title>
<path fill="none" stroke="black" d="M651.74,-251.82C656.68,-209.18 669.55,-98.24 675.56,-46.42"/>
<polygon fill="black" stroke="black" points="679.06,-46.64 676.74,-36.3 672.11,-45.83 679.06,-46.64"/>
</g>
<!-- Bond Lands -->
<g id="node4" class="node">
<title>Bond Lands</title>
<ellipse fill="none" stroke="black" cx="500.74" cy="-270" rx="65.79" ry="18"/>
<text text-anchor="middle" x="500.74" y="-266.3" font-family="Times,serif" font-size="14.00">Bond Lands</text>
</g>
<!-- Bond Lands&#45;&gt;Command Tower -->
<g id="edge3" class="edge">
<title>Bond Lands&#45;&gt;Command Tower</title>
<path fill="none" stroke="black" d="M498.82,-251.82C494.04,-209.18 481.62,-98.24 475.82,-46.42"/>
<polygon fill="black" stroke="black" points="479.27,-45.85 474.68,-36.3 472.32,-46.63 479.27,-45.85"/>
</g>
<!-- Bond Lands&#45;&gt;Original Dual Lands -->
<g id="edge4" class="edge">
<title>Bond Lands&#45;&gt;Original Dual Lands</title>
<path fill="none" stroke="black" d="M512.7,-252.21C543.28,-209.26 624.48,-95.21 660.78,-44.24"/>
<polygon fill="black" stroke="black" points="663.66,-46.22 666.61,-36.05 657.96,-42.16 663.66,-46.22"/>
</g>
<!-- Three Color Untyped Taplands -->
<g id="node5" class="node">
<title>Three Color Untyped Taplands</title>
<ellipse fill="none" stroke="black" cx="1232.74" cy="-522" rx="152.97" ry="18"/>
<text text-anchor="middle" x="1232.74" y="-518.3" font-family="Times,serif" font-size="14.00">Three Color Untyped Taplands</text>
</g>
<!-- Triomes -->
<g id="node6" class="node">
<title>Triomes</title>
<ellipse fill="none" stroke="black" cx="1396.74" cy="-270" rx="48.19" ry="18"/>
<text text-anchor="middle" x="1396.74" y="-266.3" font-family="Times,serif" font-size="14.00">Triomes</text>
</g>
<!-- Three Color Untyped Taplands&#45;&gt;Triomes -->
<g id="edge5" class="edge">
<title>Three Color Untyped Taplands&#45;&gt;Triomes</title>
<path fill="none" stroke="black" d="M1244.02,-503.82C1272.42,-460.52 1347.01,-346.82 1380.29,-296.08"/>
<polygon fill="black" stroke="black" points="1383.27,-297.93 1385.83,-287.65 1377.41,-294.09 1383.27,-297.93"/>
</g>
<!-- Battle Lands -->
<g id="node7" class="node">
<title>Battle Lands</title>
<ellipse fill="none" stroke="black" cx="1468.74" cy="-522" rx="69.59" ry="18"/>
<text text-anchor="middle" x="1468.74" y="-518.3" font-family="Times,serif" font-size="14.00">Battle Lands</text>
</g>
<!-- Battle Lands&#45;&gt;Shock Lands -->
<g id="edge6" class="edge">
<title>Battle Lands&#45;&gt;Shock Lands</title>
<path fill="none" stroke="black" d="M1425.58,-507.82C1287.22,-465.59 855.02,-333.66 703.16,-287.3"/>
<polygon fill="black" stroke="black" points="703.73,-283.82 693.14,-284.25 701.68,-290.51 703.73,-283.82"/>
</g>
<!-- Two Color Typed Taplands -->
<g id="node8" class="node">
<title>Two Color Typed Taplands</title>
<ellipse fill="none" stroke="black" cx="1514.74" cy="-774" rx="133.48" ry="18"/>
<text text-anchor="middle" x="1514.74" y="-770.3" font-family="Times,serif" font-size="14.00">Two Color Typed Taplands</text>
</g>
<!-- Two Color Typed Taplands&#45;&gt;Triomes -->
<g id="edge7" class="edge">
<title>Two Color Typed Taplands&#45;&gt;Triomes</title>
<path fill="none" stroke="black" d="M1521.28,-755.92C1536.82,-712.78 1572.73,-596.27 1545.74,-504 1520.72,-418.42 1453.59,-334.39 1418.62,-294.7"/>
<polygon fill="black" stroke="black" points="1421.14,-292.27 1411.87,-287.14 1415.92,-296.93 1421.14,-292.27"/>
</g>
<!-- Two Color Typed Taplands&#45;&gt;Battle Lands -->
<g id="edge8" class="edge">
<title>Two Color Typed Taplands&#45;&gt;Battle Lands</title>
<path fill="none" stroke="black" d="M1511.58,-755.82C1503.74,-713.18 1483.32,-602.24 1473.79,-550.42"/>
<polygon fill="black" stroke="black" points="1477.18,-549.51 1471.93,-540.3 1470.3,-550.77 1477.18,-549.51"/>
</g>
<!-- Verge Lands -->
<g id="node9" class="node">
<title>Verge Lands</title>
<ellipse fill="none" stroke="black" cx="503.74" cy="-522" rx="68.49" ry="18"/>
<text text-anchor="middle" x="503.74" y="-518.3" font-family="Times,serif" font-size="14.00">Verge Lands</text>
</g>
<!-- Verge Lands&#45;&gt;Shock Lands -->
<g id="edge10" class="edge">
<title>Verge Lands&#45;&gt;Shock Lands</title>
<path fill="none" stroke="black" d="M513.78,-503.82C538.95,-460.72 604.87,-347.83 634.7,-296.76"/>
<polygon fill="black" stroke="black" points="637.81,-298.37 639.83,-287.97 631.77,-294.84 637.81,-298.37"/>
</g>
<!-- Verge Lands&#45;&gt;Bond Lands -->
<g id="edge9" class="edge">
<title>Verge Lands&#45;&gt;Bond Lands</title>
<path fill="none" stroke="black" d="M503.54,-503.82C503.03,-461.18 501.7,-350.24 501.07,-298.42"/>
<polygon fill="black" stroke="black" points="504.57,-298.26 500.95,-288.3 497.57,-298.35 504.57,-298.26"/>
</g>
<!-- Pain Lands -->
<g id="node10" class="node">
<title>Pain Lands</title>
<ellipse fill="none" stroke="black" cx="359.74" cy="-522" rx="61.99" ry="18"/>
<text text-anchor="middle" x="359.74" y="-518.3" font-family="Times,serif" font-size="14.00">Pain Lands</text>
</g>
<!-- Pain Lands&#45;&gt;Shock Lands -->
<g id="edge12" class="edge">
<title>Pain Lands&#45;&gt;Shock Lands</title>
<path fill="none" stroke="black" d="M378.77,-504.6C428.96,-461.33 565.03,-344.03 623,-294.05"/>
<polygon fill="black" stroke="black" points="625.36,-296.64 630.65,-287.46 620.79,-291.34 625.36,-296.64"/>
</g>
<!-- Pain Lands&#45;&gt;Bond Lands -->
<g id="edge11" class="edge">
<title>Pain Lands&#45;&gt;Bond Lands</title>
<path fill="none" stroke="black" d="M369.21,-504.21C393.34,-461.44 457.23,-348.15 486.15,-296.87"/>
<polygon fill="black" stroke="black" points="489.27,-298.48 491.13,-288.05 483.17,-295.04 489.27,-298.48"/>
</g>
<!-- Slow Lands -->
<g id="node11" class="node">
<title>Slow Lands</title>
<ellipse fill="none" stroke="black" cx="649.74" cy="-522" rx="63.89" ry="18"/>
<text text-anchor="middle" x="649.74" y="-518.3" font-family="Times,serif" font-size="14.00">Slow Lands</text>
</g>
<!-- Slow Lands&#45;&gt;Shock Lands -->
<g id="edge14" class="edge">
<title>Slow Lands&#45;&gt;Shock Lands</title>
<path fill="none" stroke="black" d="M649.74,-503.82C649.74,-461.18 649.74,-350.24 649.74,-298.42"/>
<polygon fill="black" stroke="black" points="653.24,-298.3 649.74,-288.3 646.24,-298.3 653.24,-298.3"/>
</g>
<!-- Slow Lands&#45;&gt;Bond Lands -->
<g id="edge13" class="edge">
<title>Slow Lands&#45;&gt;Bond Lands</title>
<path fill="none" stroke="black" d="M639.74,-504.21C614.25,-461.44 546.73,-348.15 516.16,-296.87"/>
<polygon fill="black" stroke="black" points="519.03,-294.85 510.9,-288.05 513.02,-298.43 519.03,-294.85"/>
</g>
<!-- Check Lands -->
<g id="node12" class="node">
<title>Check Lands</title>
<ellipse fill="none" stroke="black" cx="796.74" cy="-522" rx="69.59" ry="18"/>
<text text-anchor="middle" x="796.74" y="-518.3" font-family="Times,serif" font-size="14.00">Check Lands</text>
</g>
<!-- Check Lands&#45;&gt;Shock Lands -->
<g id="edge16" class="edge">
<title>Check Lands&#45;&gt;Shock Lands</title>
<path fill="none" stroke="black" d="M786.64,-503.82C761.3,-460.72 694.92,-347.83 664.89,-296.76"/>
<polygon fill="black" stroke="black" points="667.81,-294.82 659.72,-287.97 661.78,-298.37 667.81,-294.82"/>
</g>
<!-- Check Lands&#45;&gt;Bond Lands -->
<g id="edge15" class="edge">
<title>Check Lands&#45;&gt;Bond Lands</title>
<path fill="none" stroke="black" d="M777.32,-504.6C726.1,-461.33 587.21,-344.03 528.04,-294.05"/>
<polygon fill="black" stroke="black" points="530.14,-291.24 520.24,-287.46 525.62,-296.59 530.14,-291.24"/>
</g>
<!-- Fast Lands -->
<g id="node13" class="node">
<title>Fast Lands</title>
<ellipse fill="none" stroke="black" cx="61.74" cy="-522" rx="61.99" ry="18"/>
<text text-anchor="middle" x="61.74" y="-518.3" font-family="Times,serif" font-size="14.00">Fast Lands</text>
</g>
<!-- Fast Lands&#45;&gt;Shock Lands -->
<g id="edge18" class="edge">
<title>Fast Lands&#45;&gt;Shock Lands</title>
<path fill="none" stroke="black" d="M95.47,-506.66C195.89,-463.97 492.94,-337.67 605.67,-289.74"/>
<polygon fill="black" stroke="black" points="607.22,-292.88 615.05,-285.75 604.48,-286.44 607.22,-292.88"/>
</g>
<!-- Fast Lands&#45;&gt;Bond Lands -->
<g id="edge17" class="edge">
<title>Fast Lands&#45;&gt;Bond Lands</title>
<path fill="none" stroke="black" d="M88.55,-505.74C164.07,-462.73 378.73,-340.48 464.6,-291.59"/>
<polygon fill="black" stroke="black" points="466.5,-294.53 473.46,-286.54 463.03,-288.45 466.5,-294.53"/>
</g>
<!-- Reveal Lands -->
<g id="node14" class="node">
<title>Reveal Lands</title>
<ellipse fill="none" stroke="black" cx="210.74" cy="-522" rx="72.59" ry="18"/>
<text text-anchor="middle" x="210.74" y="-518.3" font-family="Times,serif" font-size="14.00">Reveal Lands</text>
</g>
<!-- Reveal Lands&#45;&gt;Shock Lands -->
<g id="edge20" class="edge">
<title>Reveal Lands&#45;&gt;Shock Lands</title>
<path fill="none" stroke="black" d="M238.54,-505.17C314.92,-461.68 527.98,-340.34 613.52,-291.63"/>
<polygon fill="black" stroke="black" points="615.4,-294.59 622.35,-286.6 611.93,-288.51 615.4,-294.59"/>
</g>
<!-- Reveal Lands&#45;&gt;Bond Lands -->
<g id="edge19" class="edge">
<title>Reveal Lands&#45;&gt;Bond Lands</title>
<path fill="none" stroke="black" d="M229.77,-504.6C279.96,-461.33 416.03,-344.03 474,-294.05"/>
<polygon fill="black" stroke="black" points="476.36,-296.64 481.65,-287.46 471.79,-291.34 476.36,-296.64"/>
</g>
<!-- Dual&#45;Faced Lands -->
<g id="node15" class="node">
<title>Dual&#45;Faced Lands</title>
<ellipse fill="none" stroke="black" cx="972.74" cy="-522" rx="92.88" ry="18"/>
<text text-anchor="middle" x="972.74" y="-518.3" font-family="Times,serif" font-size="14.00">Dual&#45;Faced Lands</text>
</g>
<!-- Dual&#45;Faced Lands&#45;&gt;Shock Lands -->
<g id="edge22" class="edge">
<title>Dual&#45;Faced Lands&#45;&gt;Shock Lands</title>
<path fill="none" stroke="black" d="M951.3,-504.4C895.07,-460.88 743.29,-343.4 679.07,-293.7"/>
<polygon fill="black" stroke="black" points="681.02,-290.78 670.97,-287.43 676.73,-296.32 681.02,-290.78"/>
</g>
<!-- Dual&#45;Faced Lands&#45;&gt;Bond Lands -->
<g id="edge21" class="edge">
<title>Dual&#45;Faced Lands&#45;&gt;Bond Lands</title>
<path fill="none" stroke="black" d="M942.14,-504.79C858.99,-460.75 629.1,-338.98 538.32,-290.9"/>
<polygon fill="black" stroke="black" points="539.94,-287.8 529.47,-286.21 536.67,-293.99 539.94,-287.8"/>
</g>
<!-- Two Color Untyped Taplands -->
<g id="node16" class="node">
<title>Two Color Untyped Taplands</title>
<ellipse fill="none" stroke="black" cx="649.74" cy="-774" rx="144.87" ry="18"/>
<text text-anchor="middle" x="649.74" y="-770.3" font-family="Times,serif" font-size="14.00">Two Color Untyped Taplands</text>
</g>
<!-- Two Color Untyped Taplands&#45;&gt;Three Color Untyped Taplands -->
<g id="edge23" class="edge">
<title>Two Color Untyped Taplands&#45;&gt;Three Color Untyped Taplands</title>
<path fill="none" stroke="black" d="M688,-756.6C790.64,-712.58 1071.99,-591.93 1184.92,-543.51"/>
<polygon fill="black" stroke="black" points="1186.54,-546.62 1194.35,-539.46 1183.78,-540.19 1186.54,-546.62"/>
</g>
<!-- Two Color Untyped Taplands&#45;&gt;Slow Lands -->
<g id="edge24" class="edge">
<title>Two Color Untyped Taplands&#45;&gt;Slow Lands</title>
<path fill="none" stroke="black" d="M649.74,-755.82C649.74,-713.18 649.74,-602.24 649.74,-550.42"/>
<polygon fill="black" stroke="black" points="653.24,-550.3 649.74,-540.3 646.24,-550.3 653.24,-550.3"/>
</g>
<!-- Two Color Untyped Taplands&#45;&gt;Check Lands -->
<g id="edge25" class="edge">
<title>Two Color Untyped Taplands&#45;&gt;Check Lands</title>
<path fill="none" stroke="black" d="M659.85,-755.82C685.19,-712.72 751.57,-599.83 781.6,-548.76"/>
<polygon fill="black" stroke="black" points="784.71,-550.37 786.76,-539.97 778.68,-546.82 784.71,-550.37"/>
</g>
<!-- Two Color Untyped Taplands&#45;&gt;Fast Lands -->
<g id="edge26" class="edge">
<title>Two Color Untyped Taplands&#45;&gt;Fast Lands</title>
<path fill="none" stroke="black" d="M611.16,-756.6C506.01,-711.89 214.88,-588.11 104.73,-541.27"/>
<polygon fill="black" stroke="black" points="105.83,-537.94 95.26,-537.25 103.09,-544.38 105.83,-537.94"/>
</g>
<!-- Two Color Untyped Taplands&#45;&gt;Reveal Lands -->
<g id="edge27" class="edge">
<title>Two Color Untyped Taplands&#45;&gt;Reveal Lands</title>
<path fill="none" stroke="black" d="M620.26,-756.21C542.54,-711.95 332.24,-592.19 247.18,-543.75"/>
<polygon fill="black" stroke="black" points="248.82,-540.65 238.4,-538.75 245.35,-546.74 248.82,-540.65"/>
</g>
</g>
</svg>
